<svg xmlns="http://www.w3.org/2000/svg" viewBox="0 0 128 128" width="128" height="128">
  <defs>
    <linearGradient id="g" x1="12" y1="8" x2="116" y2="122" gradientUnits="userSpaceOnUse">
      <stop stop-color="#B39CFF"/><stop offset="0.52" stop-color="#7C4DFF"/><stop offset="1" stop-color="#2E7BFF"/>
    </linearGradient>
    <linearGradient id="e" x1="0" y1="0" x2="0" y2="1">
      <stop stop-color="#22D3EE"/><stop offset="1" stop-color="#7C4DFF"/>
    </linearGradient>
  </defs>
  <path d="M22 14 L52 36 L30 62 Z" fill="url(#g)"/>
  <path d="M106 14 L76 36 L98 62 Z" fill="url(#g)"/>
  <path d="M64 26 C82 26 96 36 101 52 C106 68 98 88 82 102 C74 109 69 116 64 122 C59 116 54 109 46 102 C30 88 22 68 27 52 C32 36 46 26 64 26 Z" fill="url(#g)"/>
  <path d="M64 42 C76 42 86 49 90 60 C93 71 88 85 78 95 C72 101 68 106 64 110 C60 106 56 101 50 95 C40 85 35 71 38 60 C42 49 52 42 64 42 Z" fill="#0B1122" opacity="0.92"/>
  <path d="M44 66 L58 71 L47 78 Z" fill="url(#e)"/>
  <path d="M84 66 L70 71 L81 78 Z" fill="url(#e)"/>
  <path d="M64 88 L71 96 L64 103 L57 96 Z" fill="#22D3EE"/>
</svg>
